# xmcd
#
# Track frame offsets:
# 150
# 13197
# 27915
# 46804
# 62103
# 77287
# 90685
# 112346
# 127773
# 145343
# 159806
# 173142
# 189713
# 205013
# 223347
# 241674
# 254531
# 270292
# 283438
# 301672
#
# Disc length: 4249 seconds
#
#
# Revision: 0
# Processed by: cddbd v1.5.2PL0 Copyright (c) Steve Scherf et al.
# Submitted via: FreeRIP 2.951 
#
DISCID=14109714
DTITLE=Chrystian and Ralf - ESPECIAL
DYEAR=2006
DGENRE=Sertanejo
TTITLE0=A Semente do Amor
TTITLE1=Canalha
TTITLE2=Um Cantinho do seu Coração
TTITLE3=Onde você for eu vou
TTITLE4=Com Você
TTITLE5=Vestido de Seda
TTITLE6=Olhos de Luar
TTITLE7=Cheiro de Shampu
TTITLE8=Quem será seu outro amor
TTITLE9=Chora Peito
TTITLE10=Vira, Virou
TTITLE11=Nova York
TTITLE12=Escravo do Amor
TTITLE13=O que tiver que vir virá
TTITLE14=Entre Ela e Eu
TTITLE15=Quarto Vizinho
TTITLE16=Loucura Demais
TTITLE17=Nas quebradas da Noite
TTITLE18=O amor não é Paixão
TTITLE19=Ausência
EXTD=
EXTT0=
EXTT1=
EXTT2=
EXTT3=
EXTT4=
EXTT5=
EXTT6=
EXTT7=
EXTT8=
EXTT9=
EXTT10=
EXTT11=
EXTT12=
EXTT13=
EXTT14=
EXTT15=
EXTT16=
EXTT17=
EXTT18=
EXTT19=
PLAYORDER=
